<?xml version="1.0" standalone="no"?>
<!DOCTYPE svg PUBLIC "-//W3C//DTD SVG 20010904//EN"
 "http://www.w3.org/TR/2001/REC-SVG-20010904/DTD/svg10.dtd">
<svg version="1.0" xmlns="http://www.w3.org/2000/svg"
 width="512.000000pt" height="512.000000pt" viewBox="0 0 512.000000 512.000000"
 preserveAspectRatio="xMidYMid meet">
<metadata>
Created by potrace 1.14, written by Peter Selinger 2001-2017
</metadata>
<g transform="translate(0.000000,512.000000) scale(0.100000,-0.100000)"
fill="#000000" stroke="none">
<path d="M2517 5109 c-32 -19 -248 -242 -260 -268 -15 -32 -15 -48 2 -88 28
-67 114 -77 177 -21 l22 20 -1 -100 c0 -82 3 -103 19 -125 10 -15 27 -29 37
-32 25 -9 21 -19 -15 -36 -18 -8 -89 -47 -158 -85 -69 -39 -150 -84 -180 -101
-30 -16 -91 -50 -135 -75 -77 -44 -336 -188 -590 -328 -33 -18 -114 -63 -180
-100 -112 -63 -175 -97 -285 -158 -25 -14 -79 -44 -120 -67 -41 -23 -106 -59
-145 -80 -38 -21 -86 -48 -105 -60 -71 -45 -65 57 -65 -1161 0 -1091 0 -1103
20 -1130 14 -17 353 -212 990 -567 913 -509 973 -540 1020 -541 40 0 61 7 105
33 30 18 84 49 120 69 60 33 1583 880 1675 932 84 47 102 60 113 85 9 19 12
304 12 1118 0 1021 -1 1094 -18 1120 -15 25 -423 259 -977 562 -52 28 -171 94
-385 214 -30 17 -183 101 -339 188 -221 122 -279 158 -263 164 10 4 29 20 41
35 18 23 21 40 21 132 l0 105 20 -26 c12 -15 36 -31 55 -36 99 -27 175 72 120
155 -13 20 -166 176 -228 233 -29 26 -92 37 -120 20z"/>
<path d="M455 918 c-27 -24 -65 -60 -83 -80 -40 -44 -49 -47 -47 -15 3 33 -30
91 -60 105 -56 26 -115 8 -140 -43 -19 -41 -22 -359 -4 -399 24 -51 67 -61
257 -60 139 2 177 5 197 18 92 60 45 196 -67 196 -31 0 -31 1 50 84 90 91 97
110 71 176 -12 32 -44 52 -89 57 -31 4 -43 -2 -85 -39z"/>
<path d="M4551 951 c-32 -9 -62 -50 -65 -92 -4 -41 18 -73 105 -157 l60 -57
-48 -7 c-98 -14 -134 -117 -64 -180 17 -15 41 -28 54 -29 12 -1 95 -1 185 -1
240 0 239 -1 238 272 -1 176 -2 187 -24 217 -28 40 -95 54 -133 29 -35 -22
-56 -65 -55 -108 1 -21 -1 -38 -4 -38 -3 0 -35 30 -70 66 -89 90 -116 103
-179 85z"/>
</g>
</svg>
